<svg xmlns="http://www.w3.org/2000/svg" xmlns:xlink="http://www.w3.org/1999/xlink" width="200" zoomAndPan="magnify" viewBox="0 0 150 44.999999" height="60" preserveAspectRatio="xMidYMid meet" version="1.0"><defs><g/></defs><path stroke-linecap="butt" transform="matrix(0.75, 0, 0, 0.75, -1.774309, 11.411747)" fill="none" stroke-linejoin="miter" d="M 16.38658 30.305172 C 14.209496 30.305172 12.485538 29.701006 11.219913 28.503089 C 9.949079 27.294755 9.318871 25.65413 9.318871 23.570797 C 9.318871 23.320797 9.339704 22.893713 9.391788 22.284338 L 10.751163 11.299963 C 11.048038 8.867671 12.011579 6.940587 13.641788 5.513504 C 15.271996 4.081212 17.29283 3.362462 19.704288 3.362462 C 21.88658 3.362462 23.615747 3.961421 24.891789 5.154129 C 26.173039 6.341629 26.813664 7.977046 26.813664 10.060379 C 26.813664 10.284338 26.787622 10.701004 26.740747 11.299963 L 26.704289 11.492671 C 26.673039 11.664546 26.600122 11.810379 26.490747 11.924963 C 26.381372 12.034338 26.251164 12.091629 26.094914 12.091629 L 20.303247 12.284338 C 19.928247 12.284338 19.766788 12.107254 19.813663 11.747879 L 19.923038 10.815588 C 19.975122 10.383296 19.907413 10.044754 19.73033 9.794754 C 19.558455 9.544754 19.313663 9.419754 18.985538 9.419754 C 18.63658 9.419754 18.344913 9.544754 18.10533 9.794754 C 17.865746 10.044754 17.725121 10.383296 17.673038 10.815588 L 16.204288 22.893713 C 16.157413 23.289547 16.209496 23.612463 16.370955 23.862463 C 16.537621 24.117672 16.79283 24.242672 17.141788 24.242672 C 17.495955 24.242672 17.79283 24.12288 18.021996 23.883297 C 18.26158 23.643713 18.407413 23.315588 18.464705 22.893713 L 18.57408 21.87288 C 18.600121 21.701005 18.66783 21.570797 18.777205 21.487463 C 18.891788 21.393713 19.021997 21.346838 19.173038 21.346838 L 24.928247 21.534338 C 25.10533 21.534338 25.240747 21.59163 25.32408 21.706213 C 25.412622 21.815588 25.443872 21.961422 25.41783 22.138505 L 25.381372 22.284338 C 25.079289 24.721839 24.10533 26.669755 22.459497 28.128089 C 20.818872 29.576006 18.79283 30.305172 16.38658 30.305172 Z M 33.881372 30.305172 C 31.646997 30.305172 29.891789 29.695797 28.610539 28.477047 C 27.329289 27.258297 26.693872 25.607255 26.693872 23.523922 C 26.693872 23.27913 26.714705 22.852047 26.766789 22.24788 L 28.126164 11.419754 C 28.423039 8.956213 29.396997 7.003087 31.037622 5.549962 C 32.683456 4.091629 34.735539 3.362462 37.188664 3.362462 C 39.391789 3.362462 41.14179 3.971837 42.433456 5.190587 C 43.725123 6.404129 44.370956 8.049962 44.370956 10.133296 C 44.370956 10.383296 44.350123 10.815588 44.29804 11.419754 L 42.98554 22.24788 C 42.683456 24.711422 41.70429 26.669755 40.04804 28.128089 C 38.391789 29.576006 36.339706 30.305172 33.881372 30.305172 Z M 34.626164 24.242672 C 35.006373 24.242672 35.329289 24.09163 35.589706 23.789547 C 35.855331 23.492672 36.021998 23.076005 36.094914 22.549963 L 37.490748 11.117671 C 37.542831 10.591629 37.480331 10.174963 37.298039 9.878088 C 37.126164 9.570796 36.855331 9.419754 36.475123 9.419754 C 36.074081 9.419754 35.745956 9.570796 35.480331 9.878088 C 35.219914 10.174963 35.058456 10.591629 35.006373 11.117671 L 33.615747 22.549963 C 33.594914 22.648922 33.579289 22.789547 33.579289 22.96663 C 33.579289 23.367672 33.673039 23.68538 33.855331 23.909338 C 34.048039 24.133297 34.303247 24.242672 34.626164 24.242672 Z M 57.428249 4.227046 C 57.454291 4.055171 57.521999 3.919754 57.631374 3.826004 C 57.745957 3.721837 57.891791 3.669754 58.063666 3.669754 L 63.745958 3.669754 C 63.917833 3.669754 64.048041 3.721837 64.131374 3.826004 C 64.225124 3.919754 64.256374 4.055171 64.235541 4.227046 L 61.110541 29.440589 C 61.084499 29.612464 61.021999 29.747881 60.917833 29.852047 C 60.818874 29.951006 60.683458 29.997881 60.506374 29.997881 L 54.001165 29.997881 C 53.70429 29.997881 53.527207 29.836422 53.480332 29.513506 L 52.04804 17.961421 C 52.04804 17.883296 52.021999 17.846838 51.969915 17.846838 C 51.92304 17.846838 51.896999 17.883296 51.896999 17.961421 L 50.537624 29.440589 C 50.51679 29.612464 50.443874 29.747881 50.32929 29.852047 C 50.219915 29.951006 50.089707 29.997881 49.943873 29.997881 L 44.219915 29.997881 C 44.068873 29.997881 43.949081 29.951006 43.86054 29.852047 C 43.777206 29.747881 43.745956 29.612464 43.771998 29.440589 L 46.855332 4.227046 C 46.881373 4.055171 46.949082 3.919754 47.058457 3.826004 C 47.17304 3.721837 47.308457 3.669754 47.45429 3.669754 L 53.89179 3.669754 C 54.193874 3.669754 54.365749 3.831212 54.417832 4.154129 L 55.886582 15.784338 C 55.886582 15.857255 55.907416 15.878088 55.959499 15.857255 C 56.006374 15.831213 56.042832 15.794755 56.068874 15.74788 Z M 82.251167 3.669754 C 82.397001 3.669754 82.511584 3.721837 82.600126 3.826004 C 82.688667 3.919754 82.725126 4.055171 82.699084 4.227046 L 82.094917 9.159338 C 82.068876 9.331213 82.006376 9.471838 81.907417 9.576004 C 81.813667 9.669754 81.673042 9.721838 81.495959 9.721838 L 77.136584 9.721838 C 77.006375 9.721838 76.938667 9.784338 76.938667 9.914546 L 74.532417 29.440589 C 74.511583 29.612464 74.443875 29.747881 74.339708 29.852047 C 74.245958 29.951006 74.110542 29.997881 73.938667 29.997881 L 68.17825 29.997881 C 68.001166 29.997881 67.870958 29.951006 67.782416 29.852047 C 67.699083 29.747881 67.667833 29.612464 67.693875 29.440589 L 70.100125 9.914546 C 70.100125 9.784338 70.032416 9.721838 69.907416 9.721838 L 65.699083 9.721838 C 65.521999 9.721838 65.386583 9.669754 65.292833 9.576004 C 65.209499 9.471838 65.178249 9.331213 65.204291 9.159338 L 65.808458 4.227046 C 65.8345 4.055171 65.902208 3.919754 66.011583 3.826004 C 66.126166 3.721837 66.277208 3.669754 66.454291 3.669754 Z M 92.626168 29.997881 C 92.27721 29.997881 92.115751 29.826006 92.141793 29.477047 L 92.05846 26.612464 C 92.08971 26.56038 92.074085 26.518714 92.022001 26.482255 C 91.969918 26.445797 91.923043 26.424964 91.876168 26.424964 L 88.605334 26.424964 C 88.475126 26.424964 88.386584 26.487464 88.339709 26.612464 L 87.620959 29.477047 C 87.548043 29.826006 87.334501 29.997881 86.980334 29.997881 L 81.266792 29.997881 C 80.886584 29.997881 80.751167 29.799964 80.855334 29.393714 L 89.126168 4.154129 C 89.225126 3.831212 89.454293 3.669754 89.808459 3.669754 L 96.46471 3.669754 C 96.813668 3.669754 97.001168 3.831212 97.02721 4.154129 L 99.094918 29.393714 L 99.094918 29.477047 C 99.094918 29.826006 98.907418 29.997881 98.532418 29.997881 Z M 89.881376 20.826005 C 89.834501 20.945797 89.870959 21.008297 89.990751 21.008297 L 91.761585 21.008297 C 91.83971 21.008297 91.897001 20.945797 91.949085 20.826005 L 91.803251 13.862463 C 91.803251 13.758296 91.766793 13.71663 91.699084 13.732255 C 91.636584 13.74788 91.610543 13.789546 91.610543 13.862463 Z M 108.230336 30.305172 C 106.053252 30.305172 104.329294 29.701006 103.05846 28.503089 C 101.792835 27.294755 101.157418 25.65413 101.157418 23.570797 C 101.157418 23.320797 101.18346 22.893713 101.230335 22.284338 L 102.58971 11.299963 C 102.891794 8.867671 103.855335 6.940587 105.485544 5.513504 C 107.115752 4.081212 109.131377 3.362462 111.548044 3.362462 C 113.725128 3.362462 115.454294 3.961421 116.735544 5.154129 C 118.016795 6.341629 118.65742 7.977046 118.65742 10.060379 C 118.65742 10.284338 118.631378 10.701004 118.579295 11.299963 L 118.542836 11.492671 C 118.516795 11.664546 118.443878 11.810379 118.334503 11.924963 C 118.225128 12.034338 118.089711 12.091629 117.93867 12.091629 L 112.141794 12.284338 C 111.772002 12.284338 111.605336 12.107254 111.657419 11.747879 L 111.766794 10.815588 C 111.813669 10.383296 111.751169 10.044754 111.574086 9.794754 C 111.402211 9.544754 111.152211 9.419754 110.829294 9.419754 C 110.480336 9.419754 110.188669 9.544754 109.949086 9.794754 C 109.709502 10.044754 109.563669 10.383296 109.516794 10.815588 L 108.048044 22.893713 C 107.995961 23.289547 108.053252 23.612463 108.214711 23.862463 C 108.376169 24.117672 108.636586 24.242672 108.985544 24.242672 C 109.339711 24.242672 109.631377 24.12288 109.865752 23.883297 C 110.105336 23.643713 110.251169 23.315588 110.308461 22.893713 L 110.417836 21.87288 C 110.438669 21.701005 110.506377 21.570797 110.620961 21.487463 C 110.735544 21.393713 110.865752 21.346838 111.011586 21.346838 L 116.772003 21.534338 C 116.949086 21.534338 117.079294 21.59163 117.167836 21.706213 C 117.251169 21.815588 117.282419 21.961422 117.261586 22.138505 L 117.219919 22.284338 C 116.923044 24.721839 115.949086 26.669755 114.303253 28.128089 C 112.662628 29.576006 110.636586 30.305172 108.230336 30.305172 Z M 137.199087 3.669754 C 137.344921 3.669754 137.459504 3.721837 137.548046 3.826004 C 137.636587 3.919754 137.673046 4.055171 137.647004 4.227046 L 137.042837 9.159338 C 137.016796 9.331213 136.954296 9.471838 136.855337 9.576004 C 136.761587 9.669754 136.620962 9.721838 136.443879 9.721838 L 132.079295 9.721838 C 131.954295 9.721838 131.886587 9.784338 131.886587 9.914546 L 129.480337 29.440589 C 129.459504 29.612464 129.391795 29.747881 129.287629 29.852047 C 129.18867 29.951006 129.058462 29.997881 128.886587 29.997881 L 123.12617 29.997881 C 122.949086 29.997881 122.818878 29.951006 122.730336 29.852047 C 122.647003 29.747881 122.615753 29.612464 122.641795 29.440589 L 125.048045 9.914546 C 125.048045 9.784338 124.980337 9.721838 124.855337 9.721838 L 120.647003 9.721838 C 120.46992 9.721838 120.334503 9.669754 120.240753 9.576004 C 120.15742 9.471838 120.12617 9.331213 120.152211 9.159338 L 120.756378 4.227046 C 120.78242 4.055171 120.850128 3.919754 120.959503 3.826004 C 121.074086 3.721837 121.21992 3.669754 121.397003 3.669754 Z M 137.199087 3.669754 " stroke="#000000" stroke-width="2.822085" stroke-opacity="1" stroke-miterlimit="4"/><path stroke-linecap="butt" transform="matrix(0.75, 0, 0, 0.75, -1.774309, 11.411747)" fill="none" stroke-linejoin="miter" d="M 155.324089 3.669754 C 157.329297 3.669754 158.917839 4.315587 160.079297 5.607254 C 161.251172 6.898921 161.834506 8.607254 161.834506 10.737463 C 161.834506 11.341629 161.808464 11.799963 161.751172 12.128088 C 161.558464 13.737463 161.089714 15.159338 160.344922 16.388505 C 159.605339 17.612463 158.652214 18.56038 157.480339 19.227047 C 156.31888 19.888505 155.03763 20.21663 153.63138 20.21663 L 151.558463 20.21663 C 151.433463 20.21663 151.376172 20.284338 151.376172 20.409338 L 150.245963 29.440589 C 150.219922 29.612464 150.147005 29.747881 150.032422 29.852047 C 149.923047 29.951006 149.792838 29.997881 149.647005 29.997881 L 143.850129 29.997881 C 143.699088 29.997881 143.574088 29.951006 143.485546 29.852047 C 143.397004 29.747881 143.370963 29.612464 143.402213 29.440589 L 146.480338 4.227046 C 146.50638 4.055171 146.579296 3.919754 146.688671 3.826004 C 146.798046 3.721837 146.933463 3.669754 147.084505 3.669754 Z M 152.72513 14.763505 C 153.277213 14.763505 153.740755 14.555171 154.13138 14.148921 C 154.522005 13.732255 154.766797 13.107254 154.870964 12.284338 C 154.897005 12.128088 154.907422 11.914546 154.907422 11.638504 C 154.907422 11.013504 154.772005 10.539546 154.495964 10.216629 C 154.219922 9.883296 153.844922 9.721838 153.365755 9.721838 L 152.844922 9.721838 C 152.714713 9.721838 152.652213 9.784338 152.652213 9.914546 L 152.089713 14.581213 C 152.042838 14.701005 152.089713 14.763505 152.235547 14.763505 Z M 170.928256 29.997881 C 170.631381 29.997881 170.454298 29.836422 170.407423 29.513506 L 169.313673 20.034338 C 169.313673 19.930172 169.277214 19.878088 169.204298 19.878088 C 169.100131 19.878088 169.048048 19.940588 169.048048 20.070797 L 167.881381 29.440589 C 167.855339 29.612464 167.787631 29.747881 167.667839 29.852047 C 167.558464 29.951006 167.433464 29.997881 167.282423 29.997881 L 161.490756 29.997881 C 161.334506 29.997881 161.214714 29.951006 161.131381 29.852047 C 161.042839 29.747881 161.011589 29.612464 161.037631 29.440589 L 164.126172 4.227046 C 164.147006 4.055171 164.214714 3.919754 164.324089 3.826004 C 164.443881 3.721837 164.574089 3.669754 164.719922 3.669754 L 172.959506 3.669754 C 174.969923 3.669754 176.553257 4.305171 177.719923 5.586421 C 178.88659 6.867671 179.469923 8.560379 179.469923 10.664546 C 179.469923 11.268713 179.44909 11.727046 179.397007 12.055171 C 179.219923 13.430171 178.829298 14.669755 178.225132 15.763505 C 177.620965 16.852046 176.850132 17.737463 175.897007 18.409338 C 175.772007 18.487463 175.73034 18.576005 175.777215 18.674963 L 177.407423 29.357256 L 177.407423 29.513506 C 177.407423 29.659339 177.35534 29.779131 177.251173 29.872881 C 177.152215 29.956214 177.027215 29.997881 176.870965 29.997881 Z M 170.48034 9.721838 C 170.350131 9.721838 170.287631 9.784338 170.287631 9.914546 L 169.725131 14.31038 C 169.725131 14.43538 169.787631 14.49788 169.912631 14.49788 L 170.407423 14.49788 C 171.006381 14.49788 171.51159 14.232255 171.923048 13.706213 C 172.339715 13.180171 172.548048 12.456213 172.548048 11.529129 C 172.548048 10.956213 172.407423 10.508296 172.131381 10.195796 C 171.860548 9.878088 171.48034 9.721838 171.006381 9.721838 Z M 186.652216 30.305172 C 184.41784 30.305172 182.662632 29.695797 181.381382 28.477047 C 180.10534 27.258297 179.464715 25.607255 179.464715 23.523922 C 179.464715 23.27913 179.485548 22.852047 179.537632 22.24788 L 180.897007 11.419754 C 181.193882 8.956213 182.16784 7.003087 183.808465 5.549962 C 185.454299 4.091629 187.506382 3.362462 189.959507 3.362462 C 192.167841 3.362462 193.912633 3.971837 195.204299 5.190587 C 196.495966 6.404129 197.1418 8.049962 197.1418 10.133296 C 197.1418 10.383296 197.120966 10.815588 197.068883 11.419754 L 195.756383 22.24788 C 195.454299 24.711422 194.475133 26.669755 192.818883 28.128089 C 191.162633 29.576006 189.110549 30.305172 186.652216 30.305172 Z M 187.397007 24.242672 C 187.777216 24.242672 188.100132 24.09163 188.360549 23.789547 C 188.626174 23.492672 188.792841 23.076005 188.865757 22.549963 L 190.266799 11.117671 C 190.313674 10.591629 190.251174 10.174963 190.068882 9.878088 C 189.902216 9.570796 189.626174 9.419754 189.245966 9.419754 C 188.844924 9.419754 188.516799 9.570796 188.251174 9.878088 C 187.990757 10.174963 187.829299 10.591629 187.777216 11.117671 L 186.386591 22.549963 C 186.365757 22.648922 186.350132 22.789547 186.350132 22.96663 C 186.350132 23.367672 186.443882 23.68538 186.626174 23.909338 C 186.818882 24.133297 187.074091 24.242672 187.397007 24.242672 Z M 187.397007 24.242672 " stroke="#000000" stroke-width="2.822085" stroke-opacity="1" stroke-miterlimit="4"/><g fill="#ff9100" fill-opacity="1"><g transform="translate(4.565534, 33.911746)"><g><path d="M 5.953125 0.21875 C 4.316406 0.21875 3.023438 -0.226562 2.078125 -1.125 C 1.128906 -2.03125 0.65625 -3.265625 0.65625 -4.828125 C 0.65625 -5.015625 0.671875 -5.332031 0.703125 -5.78125 L 1.71875 -14.03125 C 1.945312 -15.851562 2.671875 -17.300781 3.890625 -18.375 C 5.117188 -19.445312 6.632812 -19.984375 8.4375 -19.984375 C 10.070312 -19.984375 11.367188 -19.535156 12.328125 -18.640625 C 13.285156 -17.742188 13.765625 -16.515625 13.765625 -14.953125 C 13.765625 -14.785156 13.75 -14.476562 13.71875 -14.03125 L 13.6875 -13.890625 C 13.664062 -13.753906 13.613281 -13.644531 13.53125 -13.5625 C 13.445312 -13.476562 13.347656 -13.4375 13.234375 -13.4375 L 8.890625 -13.296875 C 8.609375 -13.296875 8.484375 -13.425781 8.515625 -13.6875 L 8.609375 -14.390625 C 8.640625 -14.710938 8.585938 -14.96875 8.453125 -15.15625 C 8.328125 -15.34375 8.144531 -15.4375 7.90625 -15.4375 C 7.632812 -15.4375 7.410156 -15.34375 7.234375 -15.15625 C 7.054688 -14.96875 6.945312 -14.710938 6.90625 -14.390625 L 5.8125 -5.328125 C 5.769531 -5.023438 5.8125 -4.78125 5.9375 -4.59375 C 6.0625 -4.40625 6.253906 -4.3125 6.515625 -4.3125 C 6.773438 -4.3125 6.992188 -4.398438 7.171875 -4.578125 C 7.359375 -4.765625 7.46875 -5.015625 7.5 -5.328125 L 7.59375 -6.09375 C 7.613281 -6.226562 7.664062 -6.328125 7.75 -6.390625 C 7.832031 -6.453125 7.929688 -6.484375 8.046875 -6.484375 L 12.359375 -6.34375 C 12.492188 -6.34375 12.59375 -6.300781 12.65625 -6.21875 C 12.71875 -6.132812 12.742188 -6.023438 12.734375 -5.890625 L 12.703125 -5.78125 C 12.472656 -3.957031 11.738281 -2.5 10.5 -1.40625 C 9.269531 -0.320312 7.753906 0.21875 5.953125 0.21875 Z M 5.953125 0.21875 "/></g></g></g><g fill="#ff9100" fill-opacity="1"><g transform="translate(17.597173, 33.911746)"><g><path d="M 6.03125 0.21875 C 4.363281 0.21875 3.050781 -0.234375 2.09375 -1.140625 C 1.132812 -2.054688 0.65625 -3.296875 0.65625 -4.859375 C 0.65625 -5.046875 0.671875 -5.363281 0.703125 -5.8125 L 1.71875 -13.9375 C 1.945312 -15.78125 2.675781 -17.25 3.90625 -18.34375 C 5.132812 -19.4375 6.671875 -19.984375 8.515625 -19.984375 C 10.171875 -19.984375 11.484375 -19.523438 12.453125 -18.609375 C 13.421875 -17.691406 13.90625 -16.457031 13.90625 -14.90625 C 13.90625 -14.71875 13.890625 -14.394531 13.859375 -13.9375 L 12.875 -5.8125 C 12.644531 -3.96875 11.90625 -2.5 10.65625 -1.40625 C 9.414062 -0.320312 7.875 0.21875 6.03125 0.21875 Z M 6.609375 -4.3125 C 6.890625 -4.3125 7.128906 -4.425781 7.328125 -4.65625 C 7.523438 -4.882812 7.648438 -5.195312 7.703125 -5.59375 L 8.75 -14.171875 C 8.78125 -14.566406 8.726562 -14.875 8.59375 -15.09375 C 8.46875 -15.320312 8.265625 -15.4375 7.984375 -15.4375 C 7.679688 -15.4375 7.429688 -15.320312 7.234375 -15.09375 C 7.035156 -14.875 6.921875 -14.566406 6.890625 -14.171875 L 5.84375 -5.59375 C 5.820312 -5.507812 5.8125 -5.40625 5.8125 -5.28125 C 5.8125 -4.976562 5.878906 -4.738281 6.015625 -4.5625 C 6.160156 -4.394531 6.359375 -4.3125 6.609375 -4.3125 Z M 6.609375 -4.3125 "/></g></g></g><g fill="#ff9100" fill-opacity="1"><g transform="translate(30.826256, 33.911746)"><g><path d="M 10.46875 -19.328125 C 10.488281 -19.460938 10.539062 -19.566406 10.625 -19.640625 C 10.707031 -19.710938 10.816406 -19.75 10.953125 -19.75 L 15.203125 -19.75 C 15.335938 -19.75 15.4375 -19.710938 15.5 -19.640625 C 15.570312 -19.566406 15.597656 -19.460938 15.578125 -19.328125 L 13.234375 -0.421875 C 13.210938 -0.285156 13.164062 -0.179688 13.09375 -0.109375 C 13.019531 -0.0351562 12.914062 0 12.78125 0 L 7.90625 0 C 7.675781 0 7.539062 -0.117188 7.5 -0.359375 L 6.4375 -9.03125 C 6.4375 -9.082031 6.414062 -9.109375 6.375 -9.109375 C 6.34375 -9.109375 6.328125 -9.082031 6.328125 -9.03125 L 5.3125 -0.421875 C 5.289062 -0.285156 5.234375 -0.179688 5.140625 -0.109375 C 5.054688 -0.0351562 4.960938 0 4.859375 0 L 0.5625 0 C 0.445312 0 0.359375 -0.0351562 0.296875 -0.109375 C 0.234375 -0.179688 0.207031 -0.285156 0.21875 -0.421875 L 2.546875 -19.328125 C 2.554688 -19.460938 2.601562 -19.566406 2.6875 -19.640625 C 2.78125 -19.710938 2.878906 -19.75 2.984375 -19.75 L 7.8125 -19.75 C 8.039062 -19.75 8.175781 -19.628906 8.21875 -19.390625 L 9.3125 -10.671875 C 9.3125 -10.609375 9.328125 -10.585938 9.359375 -10.609375 C 9.398438 -10.628906 9.429688 -10.65625 9.453125 -10.6875 Z M 10.46875 -19.328125 "/></g></g></g><g fill="#ff9100" fill-opacity="1"><g transform="translate(45.268241, 33.911746)"><g><path d="M 14.640625 -19.75 C 14.753906 -19.75 14.84375 -19.710938 14.90625 -19.640625 C 14.976562 -19.566406 15.003906 -19.460938 14.984375 -19.328125 L 14.53125 -15.640625 C 14.507812 -15.503906 14.460938 -15.394531 14.390625 -15.3125 C 14.316406 -15.238281 14.210938 -15.203125 14.078125 -15.203125 L 10.8125 -15.203125 C 10.71875 -15.203125 10.671875 -15.15625 10.671875 -15.0625 L 8.859375 -0.421875 C 8.835938 -0.285156 8.789062 -0.179688 8.71875 -0.109375 C 8.644531 -0.0351562 8.539062 0 8.40625 0 L 4.09375 0 C 3.957031 0 3.859375 -0.0351562 3.796875 -0.109375 C 3.734375 -0.179688 3.707031 -0.285156 3.71875 -0.421875 L 5.53125 -15.0625 C 5.53125 -15.15625 5.484375 -15.203125 5.390625 -15.203125 L 2.234375 -15.203125 C 2.097656 -15.203125 1.992188 -15.238281 1.921875 -15.3125 C 1.859375 -15.394531 1.835938 -15.503906 1.859375 -15.640625 L 2.3125 -19.328125 C 2.332031 -19.460938 2.382812 -19.566406 2.46875 -19.640625 C 2.550781 -19.710938 2.660156 -19.75 2.796875 -19.75 Z M 14.640625 -19.75 "/></g></g></g><g fill="#ff9100" fill-opacity="1"><g transform="translate(58.920435, 33.911746)"><g><path d="M 8.78125 0 C 8.507812 0 8.382812 -0.128906 8.40625 -0.390625 L 8.359375 -2.546875 C 8.367188 -2.578125 8.351562 -2.609375 8.3125 -2.640625 C 8.28125 -2.671875 8.25 -2.6875 8.21875 -2.6875 L 5.75 -2.6875 C 5.65625 -2.6875 5.59375 -2.640625 5.5625 -2.546875 L 5.015625 -0.390625 C 4.960938 -0.128906 4.804688 0 4.546875 0 L 0.25 0 C -0.03125 0 -0.132812 -0.148438 -0.0625 -0.453125 L 6.15625 -19.390625 C 6.226562 -19.628906 6.394531 -19.75 6.65625 -19.75 L 11.65625 -19.75 C 11.914062 -19.75 12.054688 -19.628906 12.078125 -19.390625 L 13.625 -0.453125 L 13.625 -0.390625 C 13.625 -0.128906 13.484375 0 13.203125 0 Z M 6.71875 -6.890625 C 6.675781 -6.796875 6.703125 -6.75 6.796875 -6.75 L 8.125 -6.75 C 8.1875 -6.75 8.234375 -6.796875 8.265625 -6.890625 L 8.15625 -12.109375 C 8.15625 -12.179688 8.128906 -12.210938 8.078125 -12.203125 C 8.035156 -12.191406 8.015625 -12.160156 8.015625 -12.109375 Z M 6.71875 -6.890625 "/></g></g></g><g fill="#ff9100" fill-opacity="1"><g transform="translate(73.447038, 33.911746)"><g><path d="M 5.953125 0.21875 C 4.316406 0.21875 3.023438 -0.226562 2.078125 -1.125 C 1.128906 -2.03125 0.65625 -3.265625 0.65625 -4.828125 C 0.65625 -5.015625 0.671875 -5.332031 0.703125 -5.78125 L 1.71875 -14.03125 C 1.945312 -15.851562 2.671875 -17.300781 3.890625 -18.375 C 5.117188 -19.445312 6.632812 -19.984375 8.4375 -19.984375 C 10.070312 -19.984375 11.367188 -19.535156 12.328125 -18.640625 C 13.285156 -17.742188 13.765625 -16.515625 13.765625 -14.953125 C 13.765625 -14.785156 13.75 -14.476562 13.71875 -14.03125 L 13.6875 -13.890625 C 13.664062 -13.753906 13.613281 -13.644531 13.53125 -13.5625 C 13.445312 -13.476562 13.347656 -13.4375 13.234375 -13.4375 L 8.890625 -13.296875 C 8.609375 -13.296875 8.484375 -13.425781 8.515625 -13.6875 L 8.609375 -14.390625 C 8.640625 -14.710938 8.585938 -14.96875 8.453125 -15.15625 C 8.328125 -15.34375 8.144531 -15.4375 7.90625 -15.4375 C 7.632812 -15.4375 7.410156 -15.34375 7.234375 -15.15625 C 7.054688 -14.96875 6.945312 -14.710938 6.90625 -14.390625 L 5.8125 -5.328125 C 5.769531 -5.023438 5.8125 -4.78125 5.9375 -4.59375 C 6.0625 -4.40625 6.253906 -4.3125 6.515625 -4.3125 C 6.773438 -4.3125 6.992188 -4.398438 7.171875 -4.578125 C 7.359375 -4.765625 7.46875 -5.015625 7.5 -5.328125 L 7.59375 -6.09375 C 7.613281 -6.226562 7.664062 -6.328125 7.75 -6.390625 C 7.832031 -6.453125 7.929688 -6.484375 8.046875 -6.484375 L 12.359375 -6.34375 C 12.492188 -6.34375 12.59375 -6.300781 12.65625 -6.21875 C 12.71875 -6.132812 12.742188 -6.023438 12.734375 -5.890625 L 12.703125 -5.78125 C 12.472656 -3.957031 11.738281 -2.5 10.5 -1.40625 C 9.269531 -0.320312 7.753906 0.21875 5.953125 0.21875 Z M 5.953125 0.21875 "/></g></g></g><g fill="#ff9100" fill-opacity="1"><g transform="translate(86.478677, 33.911746)"><g><path d="M 14.640625 -19.75 C 14.753906 -19.75 14.84375 -19.710938 14.90625 -19.640625 C 14.976562 -19.566406 15.003906 -19.460938 14.984375 -19.328125 L 14.53125 -15.640625 C 14.507812 -15.503906 14.460938 -15.394531 14.390625 -15.3125 C 14.316406 -15.238281 14.210938 -15.203125 14.078125 -15.203125 L 10.8125 -15.203125 C 10.71875 -15.203125 10.671875 -15.15625 10.671875 -15.0625 L 8.859375 -0.421875 C 8.835938 -0.285156 8.789062 -0.179688 8.71875 -0.109375 C 8.644531 -0.0351562 8.539062 0 8.40625 0 L 4.09375 0 C 3.957031 0 3.859375 -0.0351562 3.796875 -0.109375 C 3.734375 -0.179688 3.707031 -0.285156 3.71875 -0.421875 L 5.53125 -15.0625 C 5.53125 -15.15625 5.484375 -15.203125 5.390625 -15.203125 L 2.234375 -15.203125 C 2.097656 -15.203125 1.992188 -15.238281 1.921875 -15.3125 C 1.859375 -15.394531 1.835938 -15.503906 1.859375 -15.640625 L 2.3125 -19.328125 C 2.332031 -19.460938 2.382812 -19.566406 2.46875 -19.640625 C 2.550781 -19.710938 2.660156 -19.75 2.796875 -19.75 Z M 14.640625 -19.75 "/></g></g></g><g fill="#ff9100" fill-opacity="1"><g transform="translate(100.130871, 33.911746)"><g/></g></g><g fill="#38b6ff" fill-opacity="1"><g transform="translate(105.60459, 33.911746)"><g><path d="M 9.109375 -19.75 C 10.617188 -19.75 11.8125 -19.265625 12.6875 -18.296875 C 13.5625 -17.328125 14 -16.046875 14 -14.453125 C 14 -13.992188 13.976562 -13.644531 13.9375 -13.40625 C 13.789062 -12.195312 13.4375 -11.128906 12.875 -10.203125 C 12.320312 -9.285156 11.609375 -8.578125 10.734375 -8.078125 C 9.859375 -7.585938 8.894531 -7.34375 7.84375 -7.34375 L 6.296875 -7.34375 C 6.203125 -7.34375 6.15625 -7.296875 6.15625 -7.203125 L 5.3125 -0.421875 C 5.289062 -0.285156 5.234375 -0.179688 5.140625 -0.109375 C 5.054688 -0.0351562 4.960938 0 4.859375 0 L 0.515625 0 C 0.398438 0 0.304688 -0.0351562 0.234375 -0.109375 C 0.171875 -0.179688 0.148438 -0.285156 0.171875 -0.421875 L 2.484375 -19.328125 C 2.503906 -19.460938 2.554688 -19.566406 2.640625 -19.640625 C 2.722656 -19.710938 2.820312 -19.75 2.9375 -19.75 Z M 7.171875 -11.421875 C 7.578125 -11.421875 7.925781 -11.578125 8.21875 -11.890625 C 8.507812 -12.203125 8.695312 -12.671875 8.78125 -13.296875 C 8.789062 -13.398438 8.796875 -13.554688 8.796875 -13.765625 C 8.796875 -14.234375 8.691406 -14.585938 8.484375 -14.828125 C 8.285156 -15.078125 8.003906 -15.203125 7.640625 -15.203125 L 7.25 -15.203125 C 7.15625 -15.203125 7.109375 -15.15625 7.109375 -15.0625 L 6.6875 -11.5625 C 6.644531 -11.46875 6.679688 -11.421875 6.796875 -11.421875 Z M 7.171875 -11.421875 "/></g></g></g><g fill="#38b6ff" fill-opacity="1"><g transform="translate(118.777266, 33.911746)"><g><path d="M 7.640625 0 C 7.421875 0 7.289062 -0.117188 7.25 -0.359375 L 6.4375 -7.484375 C 6.4375 -7.554688 6.40625 -7.59375 6.34375 -7.59375 C 6.269531 -7.59375 6.234375 -7.546875 6.234375 -7.453125 L 5.359375 -0.421875 C 5.335938 -0.285156 5.285156 -0.179688 5.203125 -0.109375 C 5.117188 -0.0351562 5.019531 0 4.90625 0 L 0.5625 0 C 0.445312 0 0.359375 -0.0351562 0.296875 -0.109375 C 0.234375 -0.179688 0.207031 -0.285156 0.21875 -0.421875 L 2.546875 -19.328125 C 2.554688 -19.460938 2.601562 -19.566406 2.6875 -19.640625 C 2.78125 -19.710938 2.878906 -19.75 2.984375 -19.75 L 9.171875 -19.75 C 10.671875 -19.75 11.859375 -19.269531 12.734375 -18.3125 C 13.609375 -17.351562 14.046875 -16.082031 14.046875 -14.5 C 14.046875 -14.050781 14.03125 -13.703125 14 -13.453125 C 13.863281 -12.421875 13.566406 -11.492188 13.109375 -10.671875 C 12.660156 -9.859375 12.082031 -9.195312 11.375 -8.6875 C 11.28125 -8.632812 11.25 -8.570312 11.28125 -8.5 L 12.5 -0.484375 L 12.5 -0.359375 C 12.5 -0.253906 12.460938 -0.164062 12.390625 -0.09375 C 12.316406 -0.03125 12.222656 0 12.109375 0 Z M 7.3125 -15.203125 C 7.21875 -15.203125 7.171875 -15.15625 7.171875 -15.0625 L 6.75 -11.765625 C 6.75 -11.671875 6.796875 -11.625 6.890625 -11.625 L 7.25 -11.625 C 7.695312 -11.625 8.078125 -11.820312 8.390625 -12.21875 C 8.703125 -12.613281 8.859375 -13.160156 8.859375 -13.859375 C 8.859375 -14.285156 8.753906 -14.613281 8.546875 -14.84375 C 8.335938 -15.082031 8.054688 -15.203125 7.703125 -15.203125 Z M 7.3125 -15.203125 "/></g></g></g><g fill="#38b6ff" fill-opacity="1"><g transform="translate(132.175595, 33.911746)"><g><path d="M 6.03125 0.21875 C 4.363281 0.21875 3.050781 -0.234375 2.09375 -1.140625 C 1.132812 -2.054688 0.65625 -3.296875 0.65625 -4.859375 C 0.65625 -5.046875 0.671875 -5.363281 0.703125 -5.8125 L 1.71875 -13.9375 C 1.945312 -15.78125 2.675781 -17.25 3.90625 -18.34375 C 5.132812 -19.4375 6.671875 -19.984375 8.515625 -19.984375 C 10.171875 -19.984375 11.484375 -19.523438 12.453125 -18.609375 C 13.421875 -17.691406 13.90625 -16.457031 13.90625 -14.90625 C 13.90625 -14.71875 13.890625 -14.394531 13.859375 -13.9375 L 12.875 -5.8125 C 12.644531 -3.96875 11.90625 -2.5 10.65625 -1.40625 C 9.414062 -0.320312 7.875 0.21875 6.03125 0.21875 Z M 6.609375 -4.3125 C 6.890625 -4.3125 7.128906 -4.425781 7.328125 -4.65625 C 7.523438 -4.882812 7.648438 -5.195312 7.703125 -5.59375 L 8.75 -14.171875 C 8.78125 -14.566406 8.726562 -14.875 8.59375 -15.09375 C 8.46875 -15.320312 8.265625 -15.4375 7.984375 -15.4375 C 7.679688 -15.4375 7.429688 -15.320312 7.234375 -15.09375 C 7.035156 -14.875 6.921875 -14.566406 6.890625 -14.171875 L 5.84375 -5.59375 C 5.820312 -5.507812 5.8125 -5.40625 5.8125 -5.28125 C 5.8125 -4.976562 5.878906 -4.738281 6.015625 -4.5625 C 6.160156 -4.394531 6.359375 -4.3125 6.609375 -4.3125 Z M 6.609375 -4.3125 "/></g></g></g></svg>